<?xml version="1.0" encoding="UTF-8"?>
<!DOCTYPE svg PUBLIC "-//W3C//DTD SVG 1.1//EN" "http://www.w3.org/Graphics/SVG/1.1/DTD/svg11.dtd">
<svg xmlns="http://www.w3.org/2000/svg" version="1.1" width="1920px" height="1280px" style="shape-rendering:geometricPrecision; text-rendering:geometricPrecision; image-rendering:optimizeQuality; fill-rule:evenodd; clip-rule:evenodd" xmlns:xlink="http://www.w3.org/1999/xlink">
<g><path style="opacity:1" fill="#fffefe" d="M -0.5,-0.5 C 639.5,-0.5 1279.5,-0.5 1919.5,-0.5C 1919.5,426.167 1919.5,852.833 1919.5,1279.5C 1279.5,1279.5 639.5,1279.5 -0.5,1279.5C -0.5,852.833 -0.5,426.167 -0.5,-0.5 Z"/></g>
<g><path style="opacity:1" fill="#fffaf8" d="M 1563.5,927.5 C 1626.59,822.444 1653.92,708.944 1645.5,587C 1621.07,410.021 1534.74,272.687 1386.5,175C 1234.78,83.2707 1075.45,66.6041 908.5,125C 752.667,186.167 644.167,294.667 583,450.5C 526.288,608.667 538.955,761.333 621,908.5C 696.029,1034.24 802.862,1119.74 941.5,1165C 1058.17,1200 1173.51,1196 1287.5,1153C 1333.48,1135.35 1376.48,1112.52 1416.5,1084.5C 1418.54,1085.03 1420.21,1086.2 1421.5,1088C 1324.8,1157.34 1216.63,1193.18 1097,1195.5C 928.402,1190.19 788.402,1124.85 677,999.5C 565.353,865.279 523.686,711.612 552,538.5C 577.589,410.767 639.089,304.267 736.5,219C 855.832,119.117 993.499,75.1169 1149.5,87C 1307.6,105.776 1436.1,176.943 1535,300.5C 1624.06,417.385 1662.39,549.385 1650,696.5C 1639.88,781.018 1612.55,859.351 1568,931.5C 1566.33,930.267 1564.83,928.933 1563.5,927.5 Z"/></g>
<g><path style="opacity:1" fill="#fff8f4" d="M 1563.5,927.5 C 1561.6,927.262 1560.26,926.262 1559.5,924.5C 1561.62,923.969 1563.12,922.635 1564,920.5C 1660.93,754.427 1669.93,583.76 1591,408.5C 1523.54,274.343 1420.21,180.343 1281,126.5C 1125.37,73.0335 975.202,85.5335 830.5,164C 704.744,237.785 619.577,344.285 575,483.5C 527.674,652.207 553.341,808.207 652,951.5C 715.152,1038.75 796.652,1103.58 896.5,1146C 1040.38,1203.29 1182.72,1199.62 1323.5,1135C 1353.97,1120.61 1382.97,1103.94 1410.5,1085C 1411.82,1084.18 1412.49,1083.02 1412.5,1081.5C 1414.23,1082.03 1415.56,1083.03 1416.5,1084.5C 1376.48,1112.52 1333.48,1135.35 1287.5,1153C 1173.51,1196 1058.17,1200 941.5,1165C 802.862,1119.74 696.029,1034.24 621,908.5C 538.955,761.333 526.288,608.667 583,450.5C 644.167,294.667 752.667,186.167 908.5,125C 1075.45,66.6041 1234.78,83.2707 1386.5,175C 1534.74,272.687 1621.07,410.021 1645.5,587C 1653.92,708.944 1626.59,822.444 1563.5,927.5 Z"/></g>
<g><path style="opacity:1" fill="#fef5f0" d="M 1559.5,924.5 C 1557.57,923.89 1555.9,922.89 1554.5,921.5C 1555.5,921.586 1556.33,921.252 1557,920.5C 1609.18,833.829 1636.68,740.162 1639.5,639.5C 1633.44,470.075 1566.27,331.741 1438,224.5C 1369.5,167.498 1291.33,129.331 1203.5,110C 1072.22,85.325 948.216,105.325 831.5,170C 718.433,236.699 638.433,331.033 591.5,453C 531.082,625.263 550.916,787.43 651,939.5C 710.903,1025.09 788.07,1089.92 882.5,1134C 970.693,1172.64 1062.19,1187.47 1157,1178.5C 1246.43,1164.7 1328.6,1132.87 1403.5,1083C 1405.19,1081.69 1406.53,1080.19 1407.5,1078.5C 1409.33,1079.25 1411,1080.25 1412.5,1081.5C 1412.49,1083.02 1411.82,1084.18 1410.5,1085C 1382.97,1103.94 1353.97,1120.61 1323.5,1135C 1182.72,1199.62 1040.38,1203.29 896.5,1146C 796.652,1103.58 715.152,1038.75 652,951.5C 553.341,808.207 527.674,652.207 575,483.5C 619.577,344.285 704.744,237.785 830.5,164C 975.202,85.5335 1125.37,73.0335 1281,126.5C 1420.21,180.343 1523.54,274.343 1591,408.5C 1669.93,583.76 1660.93,754.427 1564,920.5C 1563.12,922.635 1561.62,923.969 1559.5,924.5 Z"/></g>
<g><path style="opacity:1" fill="#fff1ea" d="M 1554.5,921.5 C 1552.63,920.737 1550.96,919.737 1549.5,918.5C 1551.02,918.489 1552.18,917.823 1553,916.5C 1603.91,831.212 1630.74,738.879 1633.5,639.5C 1630.05,505.915 1584.55,389.248 1497,289.5C 1415.74,197.929 1314.9,139.429 1194.5,114C 1045.7,89.3531 909.697,120.02 786.5,206C 664.718,296.109 591.885,416.942 568,568.5C 549.826,728.583 592.993,868.749 697.5,989C 752.387,1050.57 817.387,1098.23 892.5,1132C 971.804,1165.88 1054.47,1179.88 1140.5,1174C 1222.06,1164.2 1298.39,1138.87 1369.5,1098C 1380.62,1091.36 1391.28,1084.2 1401.5,1076.5C 1403.5,1077.17 1405.5,1077.83 1407.5,1078.5C 1406.53,1080.19 1405.19,1081.69 1403.5,1083C 1328.6,1132.87 1246.43,1164.7 1157,1178.5C 1062.19,1187.47 970.693,1172.64 882.5,1134C 788.07,1089.92 710.903,1025.09 651,939.5C 550.916,787.43 531.082,625.263 591.5,453C 638.433,331.033 718.433,236.699 831.5,170C 948.216,105.325 1072.22,85.325 1203.5,110C 1291.33,129.331 1369.5,167.498 1438,224.5C 1566.27,331.741 1633.44,470.075 1639.5,639.5C 1636.68,740.162 1609.18,833.829 1557,920.5C 1556.33,921.252 1555.5,921.586 1554.5,921.5 Z"/></g>
<g><path style="opacity:1" fill="#ffeee5" d="M 1549.5,918.5 C 1548.83,918.5 1548.5,918.167 1548.5,917.5C 1599.63,832.169 1626.96,739.669 1630.5,640C 1626.42,505.306 1579.92,388.139 1491,288.5C 1407.69,196.89 1305.02,138.89 1183,114.5C 1074.47,98.8908 970.307,114.058 870.5,160C 776.978,205.83 702.145,272.996 646,361.5C 578.744,473.779 554.244,594.946 572.5,725C 602.815,872.032 678.815,989.032 800.5,1076C 902.868,1146.33 1016.37,1178.16 1141,1171.5C 1225.57,1160.09 1304.4,1132.59 1377.5,1089C 1384.41,1084.39 1391.08,1079.56 1397.5,1074.5C 1398.83,1075.17 1400.17,1075.83 1401.5,1076.5C 1391.28,1084.2 1380.62,1091.36 1369.5,1098C 1298.39,1138.87 1222.06,1164.2 1140.5,1174C 1054.47,1179.88 971.804,1165.88 892.5,1132C 817.387,1098.23 752.387,1050.57 697.5,989C 592.993,868.749 549.826,728.583 568,568.5C 591.885,416.942 664.718,296.109 786.5,206C 909.697,120.02 1045.7,89.3531 1194.5,114C 1314.9,139.429 1415.74,197.929 1497,289.5C 1584.55,389.248 1630.05,505.915 1633.5,639.5C 1630.74,738.879 1603.91,831.212 1553,916.5C 1552.18,917.823 1551.02,918.489 1549.5,918.5 Z"/></g>
<g><path style="opacity:1" fill="#feece2" d="M 1548.5,917.5 C 1546.85,917.34 1545.51,916.674 1544.5,915.5C 1565.09,883.545 1580.76,851.045 1591.5,818C 1593.69,813.786 1595.69,809.453 1597.5,805C 1596.54,803.853 1596.88,802.853 1598.5,802C 1598.17,801.667 1597.83,801.333 1597.5,801C 1598.5,799.333 1599.5,797.667 1600.5,796C 1599.54,794.853 1599.88,793.853 1601.5,793C 1601.17,792.667 1600.83,792.333 1600.5,792C 1603.91,785.174 1605.91,778.508 1606.5,772C 1608.27,769.731 1608.94,767.398 1608.5,765C 1609.88,763.676 1610.21,762.343 1609.5,761C 1610.88,759.676 1611.21,758.343 1610.5,757C 1612.57,752.124 1614.24,746.791 1615.5,741C 1614.79,739.657 1615.12,738.324 1616.5,737C 1616.04,736.586 1615.71,736.086 1615.5,735.5C 1617.3,732.345 1617.96,729.178 1617.5,726C 1620.01,716.725 1622.01,707.558 1623.5,698.5C 1623.29,697.914 1622.96,697.414 1622.5,697C 1623.86,692.602 1624.86,688.102 1625.5,683.5C 1625.17,682.833 1624.83,682.167 1624.5,681.5C 1625.2,673.02 1626.2,664.52 1627.5,656C 1626.18,645.503 1626.18,635.003 1627.5,624.5C 1622.63,552.955 1605.79,485.622 1577,422.5C 1529.37,327.195 1460.87,250.361 1371.5,192C 1228.45,104.766 1076.62,88.9329 916,144.5C 775.315,199.826 673.982,296.492 612,434.5C 586.174,495.95 572.34,561.117 570.5,630C 569.887,646.59 570.554,663.256 572.5,680C 572.167,681 571.833,682 571.5,683C 582.239,796.688 628.072,899.188 709,990.5C 726.972,1009.14 745.472,1026.98 764.5,1044C 816.671,1087.3 873.838,1119.8 936,1141.5C 936.333,1141.17 936.667,1140.83 937,1140.5C 938.667,1141.5 940.333,1142.5 942,1143.5C 943.147,1142.54 944.147,1142.88 945,1144.5C 945.333,1144.17 945.667,1143.83 946,1143.5C 949.258,1145.59 952.591,1146.59 956,1146.5C 957.912,1147.69 959.912,1148.69 962,1149.5C 963.667,1149.5 965.333,1149.5 967,1149.5C 971.821,1151.67 976.488,1153.34 981,1154.5C 981.333,1154.17 981.667,1153.83 982,1153.5C 987.682,1155.14 993.349,1156.81 999,1158.5C 999.333,1158.17 999.667,1157.83 1000,1157.5C 1002.93,1158.75 1005.93,1159.75 1009,1160.5C 1009.33,1160.17 1009.67,1159.83 1010,1159.5C 1011.96,1160.95 1013.96,1161.29 1016,1160.5C 1023.72,1162.08 1031.38,1163.75 1039,1165.5C 1039.41,1165.04 1039.91,1164.71 1040.5,1164.5C 1045.25,1165.84 1049.91,1166.84 1054.5,1167.5C 1055.17,1167.17 1055.83,1166.83 1056.5,1166.5C 1065.14,1167.1 1073.81,1168.1 1082.5,1169.5C 1093,1168.18 1103.5,1168.18 1114,1169.5C 1202.34,1162.88 1284.84,1137.88 1361.5,1094.5C 1372.51,1087.94 1383.18,1080.94 1393.5,1073.5C 1394.83,1073.83 1396.17,1074.17 1397.5,1074.5C 1391.08,1079.56 1384.41,1084.39 1377.5,1089C 1304.4,1132.59 1225.57,1160.09 1141,1171.5C 1016.37,1178.16 902.868,1146.33 800.5,1076C 678.815,989.032 602.815,872.032 572.5,725C 554.244,594.946 578.744,473.779 646,361.5C 702.145,272.996 776.978,205.83 870.5,160C 970.307,114.058 1074.47,98.8908 1183,114.5C 1305.02,138.89 1407.69,196.89 1491,288.5C 1579.92,388.139 1626.42,505.306 1630.5,640C 1626.96,739.669 1599.63,832.169 1548.5,917.5 Z"/></g>
<g><path style="opacity:1" fill="#fee9dc" d="M 1544.5,915.5 C 1541.98,914.736 1539.65,913.736 1537.5,912.5C 1538.68,912.719 1539.68,912.386 1540.5,911.5C 1590.67,828.004 1617.67,737.504 1621.5,640C 1615.76,486.984 1556.76,358.984 1444.5,256C 1327.22,150.445 1189.72,105.612 1032,121.5C 856.328,150.111 724.661,241.444 637,395.5C 575.51,515.517 561.177,641.183 594,772.5C 617.494,853.527 657.494,924.86 714,986.5C 762.881,1039.83 819.714,1082.33 884.5,1114C 958.448,1147.99 1036.12,1164.32 1117.5,1163C 1214.25,1155.43 1303.25,1125.43 1384.5,1073C 1385.6,1072.23 1385.6,1071.4 1384.5,1070.5C 1387.58,1071.3 1390.58,1072.3 1393.5,1073.5C 1383.18,1080.94 1372.51,1087.94 1361.5,1094.5C 1284.84,1137.88 1202.34,1162.88 1114,1169.5C 1103.5,1168.18 1093,1168.18 1082.5,1169.5C 1073.81,1168.1 1065.14,1167.1 1056.5,1166.5C 1055.83,1166.83 1055.17,1167.17 1054.5,1167.5C 1049.91,1166.84 1045.25,1165.84 1040.5,1164.5C 1039.91,1164.71 1039.41,1165.04 1039,1165.5C 1031.38,1163.75 1023.72,1162.08 1016,1160.5C 1013.96,1161.29 1011.96,1160.95 1010,1159.5C 1009.67,1159.83 1009.33,1160.17 1009,1160.5C 1005.93,1159.75 1002.93,1158.75 1000,1157.5C 999.667,1157.83 999.333,1158.17 999,1158.5C 993.349,1156.81 987.682,1155.14 982,1153.5C 981.667,1153.83 981.333,1154.17 981,1154.5C 976.488,1153.34 971.821,1151.67 967,1149.5C 965.333,1149.5 963.667,1149.5 962,1149.5C 959.912,1148.69 957.912,1147.69 956,1146.5C 952.591,1146.59 949.258,1145.59 946,1143.5C 945.667,1143.83 945.333,1144.17 945,1144.5C 944.147,1142.88 943.147,1142.54 942,1143.5C 940.333,1142.5 938.667,1141.5 937,1140.5C 936.667,1140.83 936.333,1141.17 936,1141.5C 873.838,1119.8 816.671,1087.3 764.5,1044C 745.472,1026.98 726.972,1009.14 709,990.5C 628.072,899.188 582.239,796.688 571.5,683C 571.833,682 572.167,681 572.5,680C 570.554,663.256 569.887,646.59 570.5,630C 572.34,561.117 586.174,495.95 612,434.5C 673.982,296.492 775.315,199.826 916,144.5C 1076.62,88.9329 1228.45,104.766 1371.5,192C 1460.87,250.361 1529.37,327.195 1577,422.5C 1605.79,485.622 1622.63,552.955 1627.5,624.5C 1626.18,635.003 1626.18,645.503 1627.5,656C 1626.2,664.52 1625.2,673.02 1624.5,681.5C 1624.83,682.167 1625.17,682.833 1625.5,683.5C 1624.86,688.102 1623.86,692.602 1622.5,697C 1622.96,697.414 1623.29,697.914 1623.5,698.5C 1622.01,707.558 1620.01,716.725 1617.5,726C 1617.96,729.178 1617.3,732.345 1615.5,735.5C 1615.71,736.086 1616.04,736.586 1616.5,737C 1615.12,738.324 1614.79,739.657 1615.5,741C 1614.24,746.791 1612.57,752.124 1610.5,757C 1611.21,758.343 1610.88,759.676 1609.5,761C 1610.21,762.343 1609.88,763.676 1608.5,765C 1608.94,767.398 1608.27,769.731 1606.5,772C 1605.91,778.508 1603.91,785.174 1600.5,792C 1600.83,792.333 1601.17,792.667 1601.5,793C 1599.88,793.853 1599.54,794.853 1600.5,796C 1599.5,797.667 1598.5,799.333 1597.5,801C 1597.83,801.333 1598.17,801.667 1598.5,802C 1596.88,802.853 1596.54,803.853 1597.5,805C 1595.69,809.453 1593.69,813.786 1591.5,818C 1580.76,851.045 1565.09,883.545 1544.5,915.5 Z"/></g>
<g><path style="opacity:1" fill="#fde5d7" d="M 1537.5,912.5 C 1535.6,912.204 1533.93,911.537 1532.5,910.5C 1559,868.507 1579.17,823.841 1593,776.5C 1620.2,689.574 1621.53,602.24 1597,514.5C 1575.63,437.081 1538.63,368.415 1486,308.5C 1428.83,242.639 1359.99,193.139 1279.5,160C 1188.02,124.226 1094.02,115.893 997.5,135C 855.121,166.585 744.288,242.085 665,361.5C 592.025,478.325 568.025,604.659 593,740.5C 621.7,862.383 684.366,962.05 781,1039.5C 864.567,1108.16 960.734,1146.99 1069.5,1156C 1138.99,1158.84 1206.16,1147.67 1271,1122.5C 1308.05,1109.06 1343.22,1091.39 1376.5,1069.5C 1379.24,1069.4 1381.9,1069.73 1384.5,1070.5C 1385.6,1071.4 1385.6,1072.23 1384.5,1073C 1303.25,1125.43 1214.25,1155.43 1117.5,1163C 1036.12,1164.32 958.448,1147.99 884.5,1114C 819.714,1082.33 762.881,1039.83 714,986.5C 657.494,924.86 617.494,853.527 594,772.5C 561.177,641.183 575.51,515.517 637,395.5C 724.661,241.444 856.328,150.111 1032,121.5C 1189.72,105.612 1327.22,150.445 1444.5,256C 1556.76,358.984 1615.76,486.984 1621.5,640C 1617.67,737.504 1590.67,828.004 1540.5,911.5C 1539.68,912.386 1538.68,912.719 1537.5,912.5 Z"/></g>
<g><path style="opacity:1" fill="#fde1d1" d="M 1532.5,910.5 C 1530.21,910.405 1528.21,909.738 1526.5,908.5C 1528.62,907.969 1530.12,906.635 1531,904.5C 1574.46,831.448 1600.46,752.114 1609,666.5C 1612.18,535.342 1572.18,420.009 1489,320.5C 1447.06,271.196 1398.56,230.029 1343.5,197C 1221.74,128.352 1093.4,112.685 958.5,150C 810.39,195.114 702.557,287.281 635,426.5C 583.948,541.399 575.282,659.399 609,780.5C 632.153,853.517 669.153,918.184 720,974.5C 758.168,1016.04 801.001,1051.54 848.5,1081C 944.114,1137.39 1047.45,1159.39 1158.5,1147C 1233.8,1134.8 1303.8,1108.8 1368.5,1069C 1362.51,1068.5 1356.51,1068.33 1350.5,1068.5C 1350.17,1068.5 1349.83,1068.5 1349.5,1068.5C 1358.43,1067.06 1367.43,1067.39 1376.5,1069.5C 1343.22,1091.39 1308.05,1109.06 1271,1122.5C 1206.16,1147.67 1138.99,1158.84 1069.5,1156C 960.734,1146.99 864.567,1108.16 781,1039.5C 684.366,962.05 621.7,862.383 593,740.5C 568.025,604.659 592.025,478.325 665,361.5C 744.288,242.085 855.121,166.585 997.5,135C 1094.02,115.893 1188.02,124.226 1279.5,160C 1359.99,193.139 1428.83,242.639 1486,308.5C 1538.63,368.415 1575.63,437.081 1597,514.5C 1621.53,602.24 1620.2,689.574 1593,776.5C 1579.17,823.841 1559,868.507 1532.5,910.5 Z"/></g>
<g><path style="opacity:1" fill="#fddcca" d="M 1526.5,908.5 C 1523.31,908.142 1520.31,907.475 1517.5,906.5C 1520.35,904.525 1522.51,901.859 1524,898.5C 1570.95,819.247 1596.45,733.081 1600.5,640C 1596.94,516.911 1554.77,409.411 1474,317.5C 1407.97,242.102 1327.47,189.269 1232.5,159C 1104.97,124.738 982.304,137.405 864.5,197C 759.033,254.802 682.533,338.969 635,449.5C 594.974,550.845 587.64,654.512 613,760.5C 640.713,856.656 690.88,938.156 763.5,1005C 864.575,1099.16 984.575,1144.83 1123.5,1142C 1188.74,1135.65 1250.91,1118.48 1310,1090.5C 1323.92,1084.45 1337.42,1077.12 1350.5,1068.5C 1356.51,1068.33 1362.51,1068.5 1368.5,1069C 1303.8,1108.8 1233.8,1134.8 1158.5,1147C 1047.45,1159.39 944.114,1137.39 848.5,1081C 801.001,1051.54 758.168,1016.04 720,974.5C 669.153,918.184 632.153,853.517 609,780.5C 575.282,659.399 583.948,541.399 635,426.5C 702.557,287.281 810.39,195.114 958.5,150C 1093.4,112.685 1221.74,128.352 1343.5,197C 1398.56,230.029 1447.06,271.196 1489,320.5C 1572.18,420.009 1612.18,535.342 1609,666.5C 1600.46,752.114 1574.46,831.448 1531,904.5C 1530.12,906.635 1528.62,907.969 1526.5,908.5 Z"/></g>
<g><path style="opacity:1" fill="#fdd8c3" d="M 1517.5,906.5 C 1516.21,906.737 1515.21,906.404 1514.5,905.5C 1564.55,823.998 1591.89,735.332 1596.5,639.5C 1592.01,513.493 1547.17,404.16 1462,311.5C 1389.8,232.665 1301.97,180.498 1198.5,155C 1066.38,129.517 943.376,152.183 829.5,223C 682.556,322.841 606.889,462.175 602.5,641C 602.704,721.982 622.537,797.815 662,868.5C 721.522,972.481 805.689,1049.31 914.5,1099C 985.539,1129.28 1059.54,1141.61 1136.5,1136C 1175.07,1131.29 1212.74,1122.62 1249.5,1110C 1248.21,1109.51 1246.87,1109.34 1245.5,1109.5C 1266.71,1105.56 1285.71,1096.73 1302.5,1083C 1316.99,1074.22 1332.66,1069.39 1349.5,1068.5C 1349.83,1068.5 1350.17,1068.5 1350.5,1068.5C 1337.42,1077.12 1323.92,1084.45 1310,1090.5C 1250.91,1118.48 1188.74,1135.65 1123.5,1142C 984.575,1144.83 864.575,1099.16 763.5,1005C 690.88,938.156 640.713,856.656 613,760.5C 587.64,654.512 594.974,550.845 635,449.5C 682.533,338.969 759.033,254.802 864.5,197C 982.304,137.405 1104.97,124.738 1232.5,159C 1327.47,189.269 1407.97,242.102 1474,317.5C 1554.77,409.411 1596.94,516.911 1600.5,640C 1596.45,733.081 1570.95,819.247 1524,898.5C 1522.51,901.859 1520.35,904.525 1517.5,906.5 Z"/></g>
<g><path style="opacity:1" fill="#fcd6bf" d="M 1514.5,905.5 C 1511.61,905.806 1508.95,905.473 1506.5,904.5C 1506.83,904.5 1507.17,904.5 1507.5,904.5C 1509.59,904.439 1511.09,903.439 1512,901.5C 1561.41,821.206 1588.25,733.873 1592.5,639.5C 1588.21,514.693 1544.04,406.693 1460,315.5C 1389.3,237.452 1303.47,185.619 1202.5,160C 1067.9,132.705 942.903,155.705 827.5,229C 695.847,319.407 622.681,444.573 608,604.5C 601.37,692.304 617.87,774.47 657.5,851C 698.781,929.666 756.115,994.999 829.5,1047C 924.636,1112.79 1029.97,1140.79 1145.5,1131C 1175.91,1126.81 1205.57,1119.98 1234.5,1110.5C 1238.15,1110.06 1241.82,1109.72 1245.5,1109.5C 1246.87,1109.34 1248.21,1109.51 1249.5,1110C 1212.74,1122.62 1175.07,1131.29 1136.5,1136C 1059.54,1141.61 985.539,1129.28 914.5,1099C 805.689,1049.31 721.522,972.481 662,868.5C 622.537,797.815 602.704,721.982 602.5,641C 606.889,462.175 682.556,322.841 829.5,223C 943.376,152.183 1066.38,129.517 1198.5,155C 1301.97,180.498 1389.8,232.665 1462,311.5C 1547.17,404.16 1592.01,513.493 1596.5,639.5C 1591.89,735.332 1564.55,823.998 1514.5,905.5 Z"/></g>
<g><path style="opacity:1" fill="#fcd3bc" d="M 1507.5,904.5 C 1553.06,830.99 1580.23,750.99 1589,664.5C 1592.28,546.341 1557.61,441.008 1485,348.5C 1433.41,283.563 1370.58,232.73 1296.5,196C 1193.49,148.391 1086.82,138.391 976.5,166C 828.31,206.915 720.477,296.749 653,435.5C 606.288,540.917 596.955,649.584 625,761.5C 652.079,853.199 700.579,931.365 770.5,996C 854.962,1075.38 955.296,1120.38 1071.5,1131C 1124.58,1133.91 1176.25,1127.07 1226.5,1110.5C 1229.17,1110.5 1231.83,1110.5 1234.5,1110.5C 1205.57,1119.98 1175.91,1126.81 1145.5,1131C 1029.97,1140.79 924.636,1112.79 829.5,1047C 756.115,994.999 698.781,929.666 657.5,851C 617.87,774.47 601.37,692.304 608,604.5C 622.681,444.573 695.847,319.407 827.5,229C 942.903,155.705 1067.9,132.705 1202.5,160C 1303.47,185.619 1389.3,237.452 1460,315.5C 1544.04,406.693 1588.21,514.693 1592.5,639.5C 1588.25,733.873 1561.41,821.206 1512,901.5C 1511.09,903.439 1509.59,904.439 1507.5,904.5 Z"/></g>
<g><path style="opacity:1" fill="#fcd1b8" d="M 1507.5,904.5 C 1507.17,904.5 1506.83,904.5 1506.5,904.5C 1503.83,904.5 1501.17,904.5 1498.5,904.5C 1554.92,817.368 1582.76,721.701 1582,617.5C 1573.31,509.74 1533.64,415.074 1463,333.5C 1424.83,289.64 1381,252.807 1331.5,223C 1220.69,158.924 1103.03,142.258 978.5,173C 843.282,209.994 741.448,289.494 673,411.5C 619.346,515.388 604.013,624.721 627,739.5C 652.625,840.36 703.791,925.527 780.5,995C 869.879,1077.26 975.379,1120.43 1097,1124.5C 1134.17,1124.04 1170.67,1118.87 1206.5,1109C 1205.94,1108.62 1205.61,1108.12 1205.5,1107.5C 1212.35,1109.47 1219.35,1110.47 1226.5,1110.5C 1176.25,1127.07 1124.58,1133.91 1071.5,1131C 955.296,1120.38 854.962,1075.38 770.5,996C 700.579,931.365 652.079,853.199 625,761.5C 596.955,649.584 606.288,540.917 653,435.5C 720.477,296.749 828.31,206.915 976.5,166C 1086.82,138.391 1193.49,148.391 1296.5,196C 1370.58,232.73 1433.41,283.563 1485,348.5C 1557.61,441.008 1592.28,546.341 1589,664.5C 1580.23,750.99 1553.06,830.99 1507.5,904.5 Z"/></g>
<g><path style="opacity:1" fill="#fbccb1" d="M 1498.5,904.5 C 1495.5,904.5 1492.5,904.5 1489.5,904.5C 1542.25,824.091 1570.91,735.591 1575.5,639C 1571.74,533.703 1537.58,439.87 1473,357.5C 1427.2,300.352 1372.37,254.185 1308.5,219C 1204.51,164.998 1095.51,151.998 981.5,180C 848.635,215.634 748.468,293.134 681,412.5C 620.93,527.599 608.597,647.599 644,772.5C 670.729,852.168 714.229,921.001 774.5,979C 830.362,1033.62 895.696,1072.95 970.5,1097C 1042.74,1120.38 1115.74,1123.22 1189.5,1105.5C 1190.71,1105.25 1191.38,1104.59 1191.5,1103.5C 1195.98,1105.44 1200.65,1106.77 1205.5,1107.5C 1205.61,1108.12 1205.94,1108.62 1206.5,1109C 1170.67,1118.87 1134.17,1124.04 1097,1124.5C 975.379,1120.43 869.879,1077.26 780.5,995C 703.791,925.527 652.625,840.36 627,739.5C 604.013,624.721 619.346,515.388 673,411.5C 741.448,289.494 843.282,209.994 978.5,173C 1103.03,142.258 1220.69,158.924 1331.5,223C 1381,252.807 1424.83,289.64 1463,333.5C 1533.64,415.074 1573.31,509.74 1582,617.5C 1582.76,721.701 1554.92,817.368 1498.5,904.5 Z"/></g>
<g><path style="opacity:1" fill="#fbc8ab" d="M 1489.5,904.5 C 1486.54,905.159 1483.54,905.492 1480.5,905.5C 1529.91,831.439 1558.74,750.106 1567,661.5C 1569.8,560.289 1542.47,468.622 1485,386.5C 1429.92,308.76 1359.09,249.926 1272.5,210C 1175.18,168.765 1075.18,162.099 972.5,190C 827.041,233.433 724.041,325.1 663.5,465C 597.979,651.423 632.645,816.923 767.5,961.5C 819.846,1015.3 881.179,1055.8 951.5,1083C 1018.62,1107.64 1087.45,1115.14 1158,1105.5C 1165.86,1103.3 1173.69,1101.3 1181.5,1099.5C 1184.84,1100.84 1188.17,1102.17 1191.5,1103.5C 1191.38,1104.59 1190.71,1105.25 1189.5,1105.5C 1115.74,1123.22 1042.74,1120.38 970.5,1097C 895.696,1072.95 830.362,1033.62 774.5,979C 714.229,921.001 670.729,852.168 644,772.5C 608.597,647.599 620.93,527.599 681,412.5C 748.468,293.134 848.635,215.634 981.5,180C 1095.51,151.998 1204.51,164.998 1308.5,219C 1372.37,254.185 1427.2,300.352 1473,357.5C 1537.58,439.87 1571.74,533.703 1575.5,639C 1570.91,735.591 1542.25,824.091 1489.5,904.5 Z"/></g>
<g><path style="opacity:1" fill="#fbc4a5" d="M 1480.5,905.5 C 1477.32,906.793 1473.99,907.46 1470.5,907.5C 1530.87,821.561 1561.03,725.894 1561,620.5C 1553.52,521.256 1518.18,433.589 1455,357.5C 1396.79,287.302 1324.95,236.135 1239.5,204C 1170.42,180.571 1099.75,174.238 1027.5,185C 895.293,207.307 791.127,273.14 715,382.5C 640.829,498.198 620.495,622.865 654,756.5C 677.328,832.392 716.328,898.725 771,955.5C 831.52,1018.96 904.02,1063.12 988.5,1088C 1037.36,1101.84 1087.02,1106.17 1137.5,1101C 1149.46,1099.68 1161.13,1097.51 1172.5,1094.5C 1175.67,1095.92 1178.67,1097.58 1181.5,1099.5C 1173.69,1101.3 1165.86,1103.3 1158,1105.5C 1087.45,1115.14 1018.62,1107.64 951.5,1083C 881.179,1055.8 819.846,1015.3 767.5,961.5C 632.645,816.923 597.979,651.423 663.5,465C 724.041,325.1 827.041,233.433 972.5,190C 1075.18,162.099 1175.18,168.765 1272.5,210C 1359.09,249.926 1429.92,308.76 1485,386.5C 1542.47,468.622 1569.8,560.289 1567,661.5C 1558.74,750.106 1529.91,831.439 1480.5,905.5 Z"/></g>
<g><path style="opacity:1" fill="#fbc2a1" d="M 1470.5,907.5 C 1469.39,907.557 1468.39,907.89 1467.5,908.5C 1519.7,833.41 1549.87,750.077 1558,658.5C 1560.1,556.483 1531.1,464.483 1471,382.5C 1419.77,313.591 1355.6,260.424 1278.5,223C 1189.74,182.649 1098.07,172.316 1003.5,192C 885.244,218.021 791.077,280.188 721,378.5C 644.769,493.695 623.103,618.695 656,753.5C 678.445,829.101 716.778,895.101 771,951.5C 820.534,1003.86 878.701,1043.69 945.5,1071C 1005.03,1094.53 1066.7,1103.87 1130.5,1099C 1143.83,1097.98 1156.83,1095.81 1169.5,1092.5C 1170.71,1092.93 1171.71,1093.6 1172.5,1094.5C 1161.13,1097.51 1149.46,1099.68 1137.5,1101C 1087.02,1106.17 1037.36,1101.84 988.5,1088C 904.02,1063.12 831.52,1018.96 771,955.5C 716.328,898.725 677.328,832.392 654,756.5C 620.495,622.865 640.829,498.198 715,382.5C 791.127,273.14 895.293,207.307 1027.5,185C 1099.75,174.238 1170.42,180.571 1239.5,204C 1324.95,236.135 1396.79,287.302 1455,357.5C 1518.18,433.589 1553.52,521.256 1561,620.5C 1561.03,725.894 1530.87,821.561 1470.5,907.5 Z"/></g>
<g><path style="opacity:1" fill="#fbc09e" d="M 1467.5,908.5 C 1464.83,908.833 1462.17,909.167 1459.5,909.5C 1517.85,828.798 1549.18,738.465 1553.5,638.5C 1550,537.478 1516.84,447.812 1454,369.5C 1406.19,310.337 1348.36,263.837 1280.5,230C 1178.49,183.195 1073.49,175.528 965.5,207C 841.618,246.845 750.118,324.678 691,440.5C 646.05,536.388 635.05,636.055 658,739.5C 678.882,816.597 716.215,884.264 770,942.5C 818.786,995.467 876.286,1035.97 942.5,1064C 989.995,1082.67 1039.16,1093.5 1090,1096.5C 1113.25,1095.6 1136.58,1093.27 1160,1089.5C 1161.38,1089.32 1162.21,1088.65 1162.5,1087.5C 1165.05,1088.93 1167.38,1090.6 1169.5,1092.5C 1156.83,1095.81 1143.83,1097.98 1130.5,1099C 1066.7,1103.87 1005.03,1094.53 945.5,1071C 878.701,1043.69 820.534,1003.86 771,951.5C 716.778,895.101 678.445,829.101 656,753.5C 623.103,618.695 644.769,493.695 721,378.5C 791.077,280.188 885.244,218.021 1003.5,192C 1098.07,172.316 1189.74,182.649 1278.5,223C 1355.6,260.424 1419.77,313.591 1471,382.5C 1531.1,464.483 1560.1,556.483 1558,658.5C 1549.87,750.077 1519.7,833.41 1467.5,908.5 Z"/></g>
<g><path style="opacity:1" fill="#fabd9a" d="M 1459.5,909.5 C 1457.28,910.369 1454.95,910.702 1452.5,910.5C 1502.55,842.256 1533.38,765.922 1545,681.5C 1552.92,596.859 1536.59,517.193 1496,442.5C 1437.36,338.858 1352.86,264.691 1242.5,220C 1131.35,181.633 1021.68,185.633 913.5,232C 786.65,291.86 704.15,389.36 666,524.5C 632.055,664.577 658.722,791.577 746,905.5C 796.908,971.018 860.075,1020.85 935.5,1055C 997.409,1082.11 1062.08,1093.11 1129.5,1088C 1139.11,1087.37 1148.45,1085.87 1157.5,1083.5C 1159.19,1084.86 1160.86,1086.2 1162.5,1087.5C 1162.21,1088.65 1161.38,1089.32 1160,1089.5C 1136.58,1093.27 1113.25,1095.6 1090,1096.5C 1039.16,1093.5 989.995,1082.67 942.5,1064C 876.286,1035.97 818.786,995.467 770,942.5C 716.215,884.264 678.882,816.597 658,739.5C 635.05,636.055 646.05,536.388 691,440.5C 750.118,324.678 841.618,246.845 965.5,207C 1073.49,175.528 1178.49,183.195 1280.5,230C 1348.36,263.837 1406.19,310.337 1454,369.5C 1516.84,447.812 1550,537.478 1553.5,638.5C 1549.18,738.465 1517.85,828.798 1459.5,909.5 Z"/></g>
<g><path style="opacity:1" fill="#f9ba96" d="M 1452.5,910.5 C 1450.62,911.341 1448.62,911.675 1446.5,911.5C 1513.19,823.251 1545.36,723.585 1543,612.5C 1534.68,525.48 1503.68,447.814 1450,379.5C 1394.04,308.21 1323.88,256.044 1239.5,223C 1141.89,189.105 1044.22,189.105 946.5,223C 841.035,262.134 761.201,330.967 707,429.5C 652.095,536.934 641.428,648.6 675,764.5C 717.943,884.44 795.109,975.273 906.5,1037C 973.755,1072.73 1045.42,1088.73 1121.5,1085C 1132.75,1084.28 1143.75,1082.78 1154.5,1080.5C 1155.83,1081.17 1156.83,1082.17 1157.5,1083.5C 1148.45,1085.87 1139.11,1087.37 1129.5,1088C 1062.08,1093.11 997.409,1082.11 935.5,1055C 860.075,1020.85 796.908,971.018 746,905.5C 658.722,791.577 632.055,664.577 666,524.5C 704.15,389.36 786.65,291.86 913.5,232C 1021.68,185.633 1131.35,181.633 1242.5,220C 1352.86,264.691 1437.36,338.858 1496,442.5C 1536.59,517.193 1552.92,596.859 1545,681.5C 1533.38,765.922 1502.55,842.256 1452.5,910.5 Z"/></g>
<g><path style="opacity:1" fill="#f9b892" d="M 1446.5,911.5 C 1438.02,912.72 1429.69,912.72 1421.5,911.5C 1423.5,911.5 1425.5,911.5 1427.5,911.5C 1430.17,911.5 1432.83,911.5 1435.5,911.5C 1436.98,911.762 1438.31,911.429 1439.5,910.5C 1508.21,822.197 1540.38,721.864 1536,609.5C 1528.99,531.801 1502.66,461.468 1457,398.5C 1413.5,339.991 1360.33,292.491 1297.5,256C 1260.59,235.589 1221.59,220.923 1180.5,212C 1146.02,206.46 1111.35,203.793 1076.5,204C 922.38,214.214 804.213,284.381 722,414.5C 678.496,489.186 658.496,569.852 662,656.5C 664.081,678.564 666.748,700.564 670,722.5C 688.207,801.255 724.54,870.255 779,929.5C 834.787,991.327 902.287,1035.49 981.5,1062C 1018.87,1072.48 1057.04,1078.32 1096,1079.5C 1113.85,1078.6 1131.68,1077.6 1149.5,1076.5C 1151.17,1077.83 1152.83,1079.17 1154.5,1080.5C 1143.75,1082.78 1132.75,1084.28 1121.5,1085C 1045.42,1088.73 973.755,1072.73 906.5,1037C 795.109,975.273 717.943,884.44 675,764.5C 641.428,648.6 652.095,536.934 707,429.5C 761.201,330.967 841.035,262.134 946.5,223C 1044.22,189.105 1141.89,189.105 1239.5,223C 1323.88,256.044 1394.04,308.21 1450,379.5C 1503.68,447.814 1534.68,525.48 1543,612.5C 1545.36,723.585 1513.19,823.251 1446.5,911.5 Z"/></g>
<g><path style="opacity:1" fill="#fab68f" d="M 1435.5,911.5 C 1497.76,831.24 1531.1,740.073 1535.5,638C 1532.45,546.842 1503.62,465.009 1449,392.5C 1403.44,332.916 1347.6,285.749 1281.5,251C 1185.64,203.868 1085.98,193.868 982.5,221C 843.273,261.559 746.44,349.059 692,483.5C 635.768,650.84 666.435,799.84 784,930.5C 837.953,989.426 902.786,1031.93 978.5,1058C 1033.36,1075.97 1089.36,1081.13 1146.5,1073.5C 1147.83,1074.17 1148.83,1075.17 1149.5,1076.5C 1131.68,1077.6 1113.85,1078.6 1096,1079.5C 1057.04,1078.32 1018.87,1072.48 981.5,1062C 902.287,1035.49 834.787,991.327 779,929.5C 724.54,870.255 688.207,801.255 670,722.5C 666.748,700.564 664.081,678.564 662,656.5C 658.496,569.852 678.496,489.186 722,414.5C 804.213,284.381 922.38,214.214 1076.5,204C 1111.35,203.793 1146.02,206.46 1180.5,212C 1221.59,220.923 1260.59,235.589 1297.5,256C 1360.33,292.491 1413.5,339.991 1457,398.5C 1502.66,461.468 1528.99,531.801 1536,609.5C 1540.38,721.864 1508.21,822.197 1439.5,910.5C 1438.31,911.429 1436.98,911.762 1435.5,911.5 Z"/></g>
<g><path style="opacity:1" fill="#fab48c" d="M 1435.5,911.5 C 1432.83,911.5 1430.17,911.5 1427.5,911.5C 1500.45,820.476 1533.62,716.476 1527,599.5C 1515.43,513.389 1481.43,437.722 1425,372.5C 1369.28,307.134 1300.78,260.301 1219.5,232C 1089.37,194.235 967.705,212.235 854.5,286C 740.509,367.508 679.342,478.675 671,619.5C 667.847,706.023 689.513,785.689 736,858.5C 791.87,944.702 867.37,1007.2 962.5,1046C 1005.74,1062.01 1050.4,1070.51 1096.5,1071.5C 1111.74,1071.15 1126.74,1069.82 1141.5,1067.5C 1143.91,1068.91 1145.58,1070.91 1146.5,1073.5C 1089.36,1081.13 1033.36,1075.97 978.5,1058C 902.786,1031.93 837.953,989.426 784,930.5C 666.435,799.84 635.768,650.84 692,483.5C 746.44,349.059 843.273,261.559 982.5,221C 1085.98,193.868 1185.64,203.868 1281.5,251C 1347.6,285.749 1403.44,332.916 1449,392.5C 1503.62,465.009 1532.45,546.842 1535.5,638C 1531.1,740.073 1497.76,831.24 1435.5,911.5 Z"/></g>
<g><path style="opacity:1" fill="#f8b086" d="M 1427.5,911.5 C 1425.5,911.5 1423.5,911.5 1421.5,911.5C 1419.59,911.784 1417.92,911.451 1416.5,910.5C 1473.31,841.322 1507.14,761.989 1518,672.5C 1524.11,586.703 1504.44,507.369 1459,434.5C 1405.54,351.697 1333.7,290.53 1243.5,251C 1165.17,220.135 1084.84,213.802 1002.5,232C 882.699,261.183 792.199,329.017 731,435.5C 678.822,534.112 666.822,637.445 695,745.5C 720.394,826.473 764.561,895.306 827.5,952C 878.056,997.782 936.389,1030.12 1002.5,1049C 1046.38,1061.09 1090.71,1064.25 1135.5,1058.5C 1137.75,1061.32 1139.75,1064.32 1141.5,1067.5C 1126.74,1069.82 1111.74,1071.15 1096.5,1071.5C 1050.4,1070.51 1005.74,1062.01 962.5,1046C 867.37,1007.2 791.87,944.702 736,858.5C 689.513,785.689 667.847,706.023 671,619.5C 679.342,478.675 740.509,367.508 854.5,286C 967.705,212.235 1089.37,194.235 1219.5,232C 1300.78,260.301 1369.28,307.134 1425,372.5C 1481.43,437.722 1515.43,513.389 1527,599.5C 1533.62,716.476 1500.45,820.476 1427.5,911.5 Z"/></g>
<g><path style="opacity:1" fill="#f9ac80" d="M 1416.5,910.5 C 1411.52,910.419 1406.86,909.419 1402.5,907.5C 1404.31,907.509 1405.98,907.009 1407.5,906C 1452.86,850.27 1483.2,789.937 1498.5,725C 1500.17,719.333 1501.83,713.667 1503.5,708C 1503.04,707.586 1502.71,707.086 1502.5,706.5C 1503.03,703.157 1504.03,699.99 1505.5,697C 1504.41,694.731 1504.74,692.564 1506.5,690.5C 1506,685.139 1506.67,679.805 1508.5,674.5C 1508.07,673.707 1507.74,672.873 1507.5,672C 1511.17,643.724 1510.5,615.891 1505.5,588.5C 1505.71,587.914 1506.04,587.414 1506.5,587C 1489.73,492.629 1442.73,409.962 1365.5,339C 1355.63,331.288 1345.97,323.455 1336.5,315.5C 1312.86,298.556 1289.36,283.889 1266,271.5C 1265.67,271.833 1265.33,272.167 1265,272.5C 1260.49,269.688 1255.82,267.021 1251,264.5C 1250.67,264.833 1250.33,265.167 1250,265.5C 1242.96,261.11 1235.63,258.11 1228,256.5C 1225.54,255.35 1223.2,254.017 1221,252.5C 1220.67,252.833 1220.33,253.167 1220,253.5C 1217.33,252.167 1214.67,250.833 1212,249.5C 1208.59,249.595 1205.26,248.595 1202,246.5C 1200.85,247.458 1199.85,247.125 1199,245.5C 1197.66,246.214 1196.32,245.88 1195,244.5C 1194.67,244.833 1194.33,245.167 1194,245.5C 1186.98,243.593 1180.31,241.593 1174,239.5C 1172.66,240.214 1171.32,239.88 1170,238.5C 1169.59,238.957 1169.09,239.291 1168.5,239.5C 1161.17,238.385 1153.67,236.718 1146,234.5C 1143.16,235.265 1140.33,234.932 1137.5,233.5C 1128.67,233.918 1119.84,233.251 1111,231.5C 1013.91,229.027 926.075,256.693 847.5,314.5C 779.688,368.136 733.688,433.969 709.5,512C 708.361,515.083 707.028,518.083 705.5,521C 705.833,521.333 706.167,521.667 706.5,522C 704.731,524.269 704.065,526.602 704.5,529C 703.14,534.108 701.473,539.108 699.5,544C 699.833,544.333 700.167,544.667 700.5,545C 699.751,548.075 698.751,551.075 697.5,554C 698.214,555.343 697.88,556.676 696.5,558C 697.285,560.042 696.952,562.042 695.5,564C 695.957,564.414 696.291,564.914 696.5,565.5C 694.955,571.554 693.622,577.387 692.5,583C 693.237,586.022 692.904,589.022 691.5,592C 691.938,600.804 691.272,609.638 689.5,618.5C 690.822,629.996 690.822,641.496 689.5,653C 694.756,738.639 725.089,816.806 780.5,887.5C 790,898.5 799.5,909.5 809,920.5C 885.158,997.429 972.158,1041.1 1070,1051.5C 1071.06,1050.9 1072.23,1050.57 1073.5,1050.5C 1091.83,1052.74 1110.16,1052.57 1128.5,1050C 1129.06,1049.62 1129.39,1049.12 1129.5,1048.5C 1131.86,1051.55 1133.86,1054.88 1135.5,1058.5C 1090.71,1064.25 1046.38,1061.09 1002.5,1049C 936.389,1030.12 878.056,997.782 827.5,952C 764.561,895.306 720.394,826.473 695,745.5C 666.822,637.445 678.822,534.112 731,435.5C 792.199,329.017 882.699,261.183 1002.5,232C 1084.84,213.802 1165.17,220.135 1243.5,251C 1333.7,290.53 1405.54,351.697 1459,434.5C 1504.44,507.369 1524.11,586.703 1518,672.5C 1507.14,761.989 1473.31,841.322 1416.5,910.5 Z"/></g>
<g><path style="opacity:1" fill="#f8a97b" d="M 1402.5,907.5 C 1401.21,907.737 1400.21,907.404 1399.5,906.5C 1466.33,830.066 1501.67,740.732 1505.5,638.5C 1502.07,547.332 1471.57,466.665 1414,396.5C 1358.41,328.598 1288.91,280.765 1205.5,253C 1074.61,217.864 954.947,240.531 846.5,321C 753.948,396.591 703.448,494.424 695,614.5C 691.07,708.358 716.736,793.025 772,868.5C 818.828,932.333 877.995,981.166 949.5,1015C 1005.56,1040.14 1064.22,1050.48 1125.5,1046C 1126.42,1045.72 1127.08,1045.22 1127.5,1044.5C 1128.67,1045.51 1129.34,1046.85 1129.5,1048.5C 1129.39,1049.12 1129.06,1049.62 1128.5,1050C 1110.16,1052.57 1091.83,1052.74 1073.5,1050.5C 1072.23,1050.57 1071.06,1050.9 1070,1051.5C 972.158,1041.1 885.158,997.429 809,920.5C 799.5,909.5 790,898.5 780.5,887.5C 725.089,816.806 694.756,738.639 689.5,653C 690.822,641.496 690.822,629.996 689.5,618.5C 691.272,609.638 691.938,600.804 691.5,592C 692.904,589.022 693.237,586.022 692.5,583C 693.622,577.387 694.955,571.554 696.5,565.5C 696.291,564.914 695.957,564.414 695.5,564C 696.952,562.042 697.285,560.042 696.5,558C 697.88,556.676 698.214,555.343 697.5,554C 698.751,551.075 699.751,548.075 700.5,545C 700.167,544.667 699.833,544.333 699.5,544C 701.473,539.108 703.14,534.108 704.5,529C 704.065,526.602 704.731,524.269 706.5,522C 706.167,521.667 705.833,521.333 705.5,521C 707.028,518.083 708.361,515.083 709.5,512C 733.688,433.969 779.688,368.136 847.5,314.5C 926.075,256.693 1013.91,229.027 1111,231.5C 1119.84,233.251 1128.67,233.918 1137.5,233.5C 1140.33,234.932 1143.16,235.265 1146,234.5C 1153.67,236.718 1161.17,238.385 1168.5,239.5C 1169.09,239.291 1169.59,238.957 1170,238.5C 1171.32,239.88 1172.66,240.214 1174,239.5C 1180.31,241.593 1186.98,243.593 1194,245.5C 1194.33,245.167 1194.67,244.833 1195,244.5C 1196.32,245.88 1197.66,246.214 1199,245.5C 1199.85,247.125 1200.85,247.458 1202,246.5C 1205.26,248.595 1208.59,249.595 1212,249.5C 1214.67,250.833 1217.33,252.167 1220,253.5C 1220.33,253.167 1220.67,252.833 1221,252.5C 1223.2,254.017 1225.54,255.35 1228,256.5C 1235.63,258.11 1242.96,261.11 1250,265.5C 1250.33,265.167 1250.67,264.833 1251,264.5C 1255.82,267.021 1260.49,269.688 1265,272.5C 1265.33,272.167 1265.67,271.833 1266,271.5C 1289.36,283.889 1312.86,298.556 1336.5,315.5C 1345.97,323.455 1355.63,331.288 1365.5,339C 1442.73,409.962 1489.73,492.629 1506.5,587C 1506.04,587.414 1505.71,587.914 1505.5,588.5C 1510.5,615.891 1511.17,643.724 1507.5,672C 1507.74,672.873 1508.07,673.707 1508.5,674.5C 1506.67,679.805 1506,685.139 1506.5,690.5C 1504.74,692.564 1504.41,694.731 1505.5,697C 1504.03,699.99 1503.03,703.157 1502.5,706.5C 1502.71,707.086 1503.04,707.586 1503.5,708C 1501.83,713.667 1500.17,719.333 1498.5,725C 1483.2,789.937 1452.86,850.27 1407.5,906C 1405.98,907.009 1404.31,907.509 1402.5,907.5 Z"/></g>
<g><path style="opacity:1" fill="#f8a778" d="M 1399.5,906.5 C 1397.45,906.598 1395.78,905.931 1394.5,904.5C 1409.3,889.284 1422.47,872.617 1434,854.5C 1479.65,783.239 1501.65,705.239 1500,620.5C 1493.61,540.425 1465.61,469.092 1416,406.5C 1360.58,336.196 1290.41,286.696 1205.5,258C 1089.7,225.765 980.705,241.098 878.5,304C 770.844,377.074 711.344,478.907 700,609.5C 694.999,704.866 720.666,790.866 777,867.5C 826.674,934.516 889.841,984.349 966.5,1017C 1014.05,1035.92 1063.38,1044.26 1114.5,1042C 1118.63,1042.09 1122.3,1041.26 1125.5,1039.5C 1126.93,1040.78 1127.6,1042.45 1127.5,1044.5C 1127.08,1045.22 1126.42,1045.72 1125.5,1046C 1064.22,1050.48 1005.56,1040.14 949.5,1015C 877.995,981.166 818.828,932.333 772,868.5C 716.736,793.025 691.07,708.358 695,614.5C 703.448,494.424 753.948,396.591 846.5,321C 954.947,240.531 1074.61,217.864 1205.5,253C 1288.91,280.765 1358.41,328.598 1414,396.5C 1471.57,466.665 1502.07,547.332 1505.5,638.5C 1501.67,740.732 1466.33,830.066 1399.5,906.5 Z"/></g>
<g><path style="opacity:1" fill="#f8a473" d="M 1394.5,904.5 C 1391.09,903.958 1388.09,902.625 1385.5,900.5C 1439.37,838.75 1472.87,767.083 1486,685.5C 1496.17,600.032 1478.17,521.032 1432,448.5C 1381.47,370.968 1313.64,314.135 1228.5,278C 1114.91,237.049 1005.24,245.716 899.5,304C 785.191,374.685 722.357,477.518 711,612.5C 706.84,703.668 731.506,786.001 785,859.5C 830.805,922.296 888.972,969.796 959.5,1002C 1011.8,1024.71 1066.14,1034.21 1122.5,1030.5C 1124.07,1033.22 1125.07,1036.22 1125.5,1039.5C 1122.3,1041.26 1118.63,1042.09 1114.5,1042C 1063.38,1044.26 1014.05,1035.92 966.5,1017C 889.841,984.349 826.674,934.516 777,867.5C 720.666,790.866 694.999,704.866 700,609.5C 711.344,478.907 770.844,377.074 878.5,304C 980.705,241.098 1089.7,225.765 1205.5,258C 1290.41,286.696 1360.58,336.196 1416,406.5C 1465.61,469.092 1493.61,540.425 1500,620.5C 1501.65,705.239 1479.65,783.239 1434,854.5C 1422.47,872.617 1409.3,889.284 1394.5,904.5 Z"/></g>
<g><path style="opacity:1" fill="#f7a06d" d="M 1385.5,900.5 C 1382.01,899.59 1379.01,897.924 1376.5,895.5C 1453.23,809.95 1486.73,709.616 1477,594.5C 1464.19,518.882 1432.19,452.882 1381,396.5C 1335.97,347.131 1282.47,309.964 1220.5,285C 1105.81,245.445 996.481,256.778 892.5,319C 781.039,394.047 723.372,499.214 719.5,634.5C 720.807,712.583 743.64,783.583 788,847.5C 833.965,913.14 893.465,962.306 966.5,995C 1015.76,1015.78 1067.09,1024.61 1120.5,1021.5C 1121.58,1024.4 1122.24,1027.4 1122.5,1030.5C 1066.14,1034.21 1011.8,1024.71 959.5,1002C 888.972,969.796 830.805,922.296 785,859.5C 731.506,786.001 706.84,703.668 711,612.5C 722.357,477.518 785.191,374.685 899.5,304C 1005.24,245.716 1114.91,237.049 1228.5,278C 1313.64,314.135 1381.47,370.968 1432,448.5C 1478.17,521.032 1496.17,600.032 1486,685.5C 1472.87,767.083 1439.37,838.75 1385.5,900.5 Z"/></g>
<g><path style="opacity:1" fill="#f79d68" d="M 1376.5,895.5 C 1371.64,893.237 1367.3,890.237 1363.5,886.5C 1366.73,884.78 1369.56,882.447 1372,879.5C 1431.19,810.725 1462.36,730.725 1465.5,639.5C 1465.49,627.262 1464.49,615.262 1462.5,603.5C 1467.19,580.58 1464.52,558.58 1454.5,537.5C 1455.1,537.265 1455.43,536.765 1455.5,536C 1438.15,486.108 1411.98,441.608 1377,402.5C 1331.47,351.968 1276.97,314.468 1213.5,290C 1107.4,254.675 1005.4,264.008 907.5,318C 804.485,381.095 744.985,472.929 729,593.5C 719.87,687.658 742.87,772.991 798,849.5C 842.881,911.825 900.381,958.325 970.5,989C 1017.85,1008.84 1067.18,1017.34 1118.5,1014.5C 1118.5,1013.5 1118.5,1012.5 1118.5,1011.5C 1119.58,1014.63 1120.25,1017.96 1120.5,1021.5C 1067.09,1024.61 1015.76,1015.78 966.5,995C 893.465,962.306 833.965,913.14 788,847.5C 743.64,783.583 720.807,712.583 719.5,634.5C 723.372,499.214 781.039,394.047 892.5,319C 996.481,256.778 1105.81,245.445 1220.5,285C 1282.47,309.964 1335.97,347.131 1381,396.5C 1432.19,452.882 1464.19,518.882 1477,594.5C 1486.73,709.616 1453.23,809.95 1376.5,895.5 Z"/></g>
<g><path style="opacity:1" fill="#f79b65" d="M 1454.5,537.5 C 1449.74,527.64 1443.74,518.64 1436.5,510.5C 1437.04,510.44 1437.38,510.107 1437.5,509.5C 1393.13,415.298 1323.46,346.798 1228.5,304C 1151.47,272.583 1072.8,267.916 992.5,290C 887.471,322.372 811.638,388.205 765,487.5C 710.957,623.183 728.624,748.516 818,863.5C 861.944,917.717 916.111,958.217 980.5,985C 1024.89,1002.56 1070.89,1009.72 1118.5,1006.5C 1118.5,1008.17 1118.5,1009.83 1118.5,1011.5C 1118.5,1012.5 1118.5,1013.5 1118.5,1014.5C 1067.18,1017.34 1017.85,1008.84 970.5,989C 900.381,958.325 842.881,911.825 798,849.5C 742.87,772.991 719.87,687.658 729,593.5C 744.985,472.929 804.485,381.095 907.5,318C 1005.4,264.008 1107.4,254.675 1213.5,290C 1276.97,314.468 1331.47,351.968 1377,402.5C 1411.98,441.608 1438.15,486.108 1455.5,536C 1455.43,536.765 1455.1,537.265 1454.5,537.5 Z"/></g>
<g><path style="opacity:1" fill="#f79760" d="M 1436.5,510.5 C 1429.35,503.44 1421.68,497.107 1413.5,491.5C 1399.65,464.813 1382.82,440.146 1363,417.5C 1319.29,368.562 1266.79,332.396 1205.5,309C 1107.56,276.164 1012.56,284.497 920.5,334C 823.63,391.969 766.797,477.136 750,589.5C 739.647,683.439 762.647,768.105 819,843.5C 864.542,904.386 922.709,948.552 993.5,976C 1033.98,990.524 1075.64,996.358 1118.5,993.5C 1118.5,997.833 1118.5,1002.17 1118.5,1006.5C 1070.89,1009.72 1024.89,1002.56 980.5,985C 916.111,958.217 861.944,917.717 818,863.5C 728.624,748.516 710.957,623.183 765,487.5C 811.638,388.205 887.471,322.372 992.5,290C 1072.8,267.916 1151.47,272.583 1228.5,304C 1323.46,346.798 1393.13,415.298 1437.5,509.5C 1437.38,510.107 1437.04,510.44 1436.5,510.5 Z"/></g>
<g><path style="opacity:1" fill="#f7935a" d="M 1413.5,491.5 C 1404.4,487.025 1395.06,483.359 1385.5,480.5C 1386.38,480.631 1387.04,480.298 1387.5,479.5C 1338.01,401.059 1269.01,347.559 1180.5,319C 1071.81,291.137 973.142,311.137 884.5,379C 800.735,450.524 760.901,541.69 765,652.5C 771.266,728.327 798.933,794.993 848,852.5C 890.081,902.12 941.581,938.287 1002.5,961C 1040.8,974.038 1080.14,979.204 1120.5,976.5C 1119.72,982.153 1119.06,987.82 1118.5,993.5C 1075.64,996.358 1033.98,990.524 993.5,976C 922.709,948.552 864.542,904.386 819,843.5C 762.647,768.105 739.647,683.439 750,589.5C 766.797,477.136 823.63,391.969 920.5,334C 1012.56,284.497 1107.56,276.164 1205.5,309C 1266.79,332.396 1319.29,368.562 1363,417.5C 1382.82,440.146 1399.65,464.813 1413.5,491.5 Z"/></g>
<g><path style="opacity:1" fill="#f69055" d="M 1385.5,480.5 C 1379.35,479.653 1373.35,478.653 1367.5,477.5C 1369.2,477.66 1370.87,477.494 1372.5,477C 1323.85,404.148 1257.52,354.815 1173.5,329C 1064.13,302.431 966.46,325.098 880.5,397C 804.402,468.584 769.902,556.751 777,661.5C 785.081,730.634 811.414,791.634 856,844.5C 894.715,890.28 941.882,924.447 997.5,947C 1038.5,962.611 1080.83,968.444 1124.5,964.5C 1123.15,968.584 1121.82,972.584 1120.5,976.5C 1080.14,979.204 1040.8,974.038 1002.5,961C 941.581,938.287 890.081,902.12 848,852.5C 798.933,794.993 771.266,728.327 765,652.5C 760.901,541.69 800.735,450.524 884.5,379C 973.142,311.137 1071.81,291.137 1180.5,319C 1269.01,347.559 1338.01,401.059 1387.5,479.5C 1387.04,480.298 1386.38,480.631 1385.5,480.5 Z"/></g>
<g><path style="opacity:1" fill="#f68e52" d="M 1367.5,477.5 C 1367.17,477.5 1366.83,477.5 1366.5,477.5C 1318.51,406.811 1253.51,358.977 1171.5,334C 1071.6,309.58 980.597,327.913 898.5,389C 815.761,458.088 776.928,546.921 782,655.5C 788.453,724.573 813.786,785.573 858,838.5C 900.42,889.969 953.253,926.469 1016.5,948C 1052.08,958.937 1088.42,962.771 1125.5,959.5C 1125.37,961.216 1125.04,962.883 1124.5,964.5C 1080.83,968.444 1038.5,962.611 997.5,947C 941.882,924.447 894.715,890.28 856,844.5C 811.414,791.634 785.081,730.634 777,661.5C 769.902,556.751 804.402,468.584 880.5,397C 966.46,325.098 1064.13,302.431 1173.5,329C 1257.52,354.815 1323.85,404.148 1372.5,477C 1370.87,477.494 1369.2,477.66 1367.5,477.5 Z"/></g>
<g><path style="opacity:1" fill="#f68a4b" d="M 1366.5,477.5 C 1322.03,476.146 1288.53,494.479 1266,532.5C 1260.55,544.859 1255.88,557.526 1252,570.5C 1237.58,604.914 1212.41,627.414 1176.5,638C 1158.55,640.478 1140.55,642.478 1122.5,644C 1074.3,658.53 1046.47,690.696 1039,740.5C 1036.02,785.701 1053.19,820.868 1090.5,846C 1124.44,876.971 1136.1,914.805 1125.5,959.5C 1088.42,962.771 1052.08,958.937 1016.5,948C 953.253,926.469 900.42,889.969 858,838.5C 813.786,785.573 788.453,724.573 782,655.5C 776.928,546.921 815.761,458.088 898.5,389C 980.597,327.913 1071.6,309.58 1171.5,334C 1253.51,358.977 1318.51,406.811 1366.5,477.5 Z"/></g>
<g><path style="opacity:1" fill="#f79760" d="M 1462.5,603.5 C 1464.49,615.262 1465.49,627.262 1465.5,639.5C 1462.36,730.725 1431.19,810.725 1372,879.5C 1369.56,882.447 1366.73,884.78 1363.5,886.5C 1360.47,884.14 1357.81,881.473 1355.5,878.5C 1412.41,815.637 1444.58,741.637 1452,656.5C 1452.82,648.988 1452.66,641.655 1451.5,634.5C 1456.56,624.654 1460.23,614.321 1462.5,603.5 Z"/></g>
<g><path style="opacity:1" fill="#f7935a" d="M 1451.5,634.5 C 1452.66,641.655 1452.82,648.988 1452,656.5C 1444.58,741.637 1412.41,815.637 1355.5,878.5C 1350.79,874.793 1346.79,870.46 1343.5,865.5C 1395.88,808.291 1426.22,740.791 1434.5,663C 1434.49,661.293 1434.16,659.793 1433.5,658.5C 1440.48,651.177 1446.48,643.177 1451.5,634.5 Z"/></g>
<g><path style="opacity:1" fill="#f69055" d="M 1433.5,658.5 C 1434.16,659.793 1434.49,661.293 1434.5,663C 1426.22,740.791 1395.88,808.291 1343.5,865.5C 1340.1,860.762 1337.1,855.762 1334.5,850.5C 1380.5,799.824 1407.5,740.491 1415.5,672.5C 1421.76,668.246 1427.76,663.58 1433.5,658.5 Z"/></g>
<g><path style="opacity:1" fill="#f68b4d" d="M 1415.5,672.5 C 1407.5,740.491 1380.5,799.824 1334.5,850.5C 1316.71,815.653 1314.88,779.986 1329,743.5C 1339.62,720.88 1355.79,703.38 1377.5,691C 1390.35,685.076 1403.01,678.909 1415.5,672.5 Z"/></g>
</svg>
