<?xml version="1.0" encoding="UTF-8"?>
<!DOCTYPE svg PUBLIC "-//W3C//DTD SVG 1.1//EN" "http://www.w3.org/Graphics/SVG/1.1/DTD/svg11.dtd">
<svg xmlns="http://www.w3.org/2000/svg" version="1.1" width="512px" height="512px" style="shape-rendering:geometricPrecision; text-rendering:geometricPrecision; image-rendering:optimizeQuality; fill-rule:evenodd; clip-rule:evenodd" xmlns:xlink="http://www.w3.org/1999/xlink">
<g><path style="opacity:0.976" fill="#000000" d="M 79.5,41.5 C 124.167,41.5 168.833,41.5 213.5,41.5C 219.705,62.7814 225.705,84.1147 231.5,105.5C 298.167,105.333 364.834,105.5 431.5,106C 452.667,109.833 465.167,122.333 469,143.5C 469.667,239.5 469.667,335.5 469,431.5C 465.167,452.667 452.667,465.167 431.5,469C 372.501,469.5 313.501,469.667 254.5,469.5C 248,448.168 241,427.001 233.5,406C 182.167,405.667 130.833,405.333 79.5,405C 58.3333,401.167 45.8333,388.667 42,367.5C 41.3333,271.5 41.3333,175.5 42,79.5C 46.0131,58.3209 58.5131,45.6542 79.5,41.5 Z M 238.5,128.5 C 300.999,127.335 363.665,127.168 426.5,128C 439.134,129.634 445.967,136.8 447,149.5C 447.667,241.5 447.667,333.5 447,425.5C 445.967,438.2 439.134,445.366 426.5,447C 377.167,447.667 327.833,447.667 278.5,447C 292,433.5 305.5,420 319,406.5C 319.458,403.442 319.124,400.442 318,397.5C 313.026,380.246 307.859,363.08 302.5,346C 308.5,340 314.5,334 320.5,328C 321.167,327.333 321.833,327.333 322.5,328C 340.833,346.333 359.167,364.667 377.5,383C 378.5,383.667 379.5,383.667 380.5,383C 385,378.5 389.5,374 394,369.5C 394.667,368.5 394.667,367.5 394,366.5C 375.472,347.638 356.638,329.138 337.5,311C 356.459,289.658 369.959,265.158 378,237.5C 387.083,236.515 396.249,236.182 405.5,236.5C 405.5,228.833 405.5,221.167 405.5,213.5C 379.5,213.5 353.5,213.5 327.5,213.5C 327.5,206.167 327.5,198.833 327.5,191.5C 319.833,191.5 312.167,191.5 304.5,191.5C 304.5,198.833 304.5,206.167 304.5,213.5C 290.833,213.5 277.167,213.5 263.5,213.5C 255.612,184.932 247.279,156.598 238.5,128.5 Z M 146.5,136.5 C 171.664,135.717 193.331,143.884 211.5,161C 203,168.833 194.5,176.667 186,184.5C 167.142,169.35 146.976,167.517 125.5,179C 103.246,195.433 96.413,216.933 105,243.5C 119.798,271.804 142.631,281.304 173.5,272C 185.741,266.204 194.074,256.871 198.5,244C 182.837,243.5 167.17,243.333 151.5,243.5C 151.5,232.833 151.5,222.167 151.5,211.5C 179.167,211.5 206.833,211.5 234.5,211.5C 239.2,243.907 229.533,271.074 205.5,293C 175.564,313.323 144.231,315.656 111.5,300C 71.6169,274.706 58.1169,239.206 71,193.5C 85.1778,159.839 110.344,140.839 146.5,136.5 Z M 270.5,237.5 C 297.995,236.502 325.662,236.169 353.5,236.5C 346.948,257.613 336.282,276.28 321.5,292.5C 312.361,282.241 304.694,270.908 298.5,258.5C 291.277,257.817 284.11,257.151 277,256.5C 274.897,250.021 272.73,243.687 270.5,237.5 Z M 284.5,282.5 C 290.993,292.123 297.993,301.456 305.5,310.5C 302.208,313.49 298.874,316.49 295.5,319.5C 291.229,307.353 287.562,295.019 284.5,282.5 Z"/></g>
</svg>
