<?xml version="1.0" encoding="UTF-8"?>
<!DOCTYPE svg PUBLIC "-//W3C//DTD SVG 1.1//EN" "http://www.w3.org/Graphics/SVG/1.1/DTD/svg11.dtd">
<svg xmlns="http://www.w3.org/2000/svg" version="1.1" width="300px" height="300px" style="shape-rendering:geometricPrecision; text-rendering:geometricPrecision; image-rendering:optimizeQuality; fill-rule:evenodd; clip-rule:evenodd" xmlns:xlink="http://www.w3.org/1999/xlink">
<g><path style="opacity:1" fill="#fefefe" d="M -0.5,-0.5 C 99.5,-0.5 199.5,-0.5 299.5,-0.5C 299.5,99.5 299.5,199.5 299.5,299.5C 199.5,299.5 99.5,299.5 -0.5,299.5C -0.5,199.5 -0.5,99.5 -0.5,-0.5 Z"/></g>
<g><path style="opacity:1" fill="#feeee2" d="M 191.5,38.5 C 186.169,37.1682 180.835,35.8348 175.5,34.5C 146.413,28.1133 118.746,32.1133 92.5,46.5C 92.33,45.1779 92.6634,44.0113 93.5,43C 98.6367,42.0984 103.303,40.0984 107.5,37C 115.357,34.6772 123.357,32.6772 131.5,31C 148.292,29.9287 164.959,30.5954 181.5,33C 184.086,35.3926 187.419,37.2259 191.5,38.5 Z"/></g>
<g><path style="opacity:1" fill="#e0704c" d="M 175.5,34.5 C 159.476,34.2448 143.476,34.5781 127.5,35.5C 127.67,36.8221 127.337,37.9887 126.5,39C 121.5,39.3333 116.5,39.6667 111.5,40C 107.274,43.0244 102.607,45.1911 97.5,46.5C 96.2813,47.6461 94.9479,48.6461 93.5,49.5C 95.0863,51.1727 95.7529,53.1727 95.5,55.5C 94.5,55.5 93.5,55.5 92.5,55.5C 92.5,54.1667 92.5,52.8333 92.5,51.5C 90.8008,51.3398 89.1341,51.5065 87.5,52C 83.8776,55.1464 79.8776,57.6464 75.5,59.5C 80.2456,54.1034 85.9123,49.7701 92.5,46.5C 118.746,32.1133 146.413,28.1133 175.5,34.5 Z"/></g>
<g><path style="opacity:1" fill="#f06439" d="M 175.5,34.5 C 180.835,35.8348 186.169,37.1682 191.5,38.5C 193.364,40.0138 195.364,41.3472 197.5,42.5C 199.964,43.5122 201.631,45.3455 202.5,48C 204.577,48.1922 206.577,48.6922 208.5,49.5C 211.137,51.9791 214.137,53.8125 217.5,55C 220.225,57.584 221.725,60.4174 222,63.5C 224.411,62.8727 226.911,62.8727 229.5,63.5C 231.545,66.9965 233.378,70.6631 235,74.5C 236.154,75.7433 237.488,76.7433 239,77.5C 239.219,78.938 239.719,80.2713 240.5,81.5C 241.086,81.2907 241.586,80.9574 242,80.5C 242.333,82.1667 242.667,83.8333 243,85.5C 244,84.1667 245,84.1667 246,85.5C 246.767,89.1112 248.6,92.1112 251.5,94.5C 251.023,95.4776 250.357,96.3109 249.5,97C 253.15,102.11 256.816,106.943 260.5,111.5C 260.178,115.747 261.011,119.747 263,123.5C 264.428,139.837 264.595,156.17 263.5,172.5C 263.737,173.791 263.404,174.791 262.5,175.5C 260.061,180.49 258.394,185.823 257.5,191.5C 256.5,191.5 255.5,191.5 254.5,191.5C 254.5,193.5 254.5,195.5 254.5,197.5C 253.5,197.5 252.5,197.5 251.5,197.5C 250.74,201.687 248.907,205.354 246,208.5C 245.505,210.473 245.338,212.473 245.5,214.5C 243.956,214.703 242.622,215.37 241.5,216.5C 239.753,218.941 237.92,221.274 236,223.5C 235.517,222.552 235.351,221.552 235.5,220.5C 234.5,220.5 233.5,220.5 232.5,220.5C 232.5,221.5 232.5,222.5 232.5,223.5C 227.886,222.856 224.886,224.689 223.5,229C 223.833,229.833 224.167,230.667 224.5,231.5C 225.95,230.15 226.617,228.484 226.5,226.5C 230.919,227.323 231.586,229.49 228.5,233C 224.541,232.791 222.874,234.625 223.5,238.5C 217.627,240.494 212.293,243.66 207.5,248C 204.389,248.444 201.723,249.777 199.5,252C 197.559,252.743 195.726,252.576 194,251.5C 192.869,253.605 191.703,255.605 190.5,257.5C 186.726,258.359 183.059,259.359 179.5,260.5C 162.249,262.948 144.915,263.115 127.5,261C 116.017,257.791 104.684,253.958 93.5,249.5C 87.6312,247.404 82.6312,244.071 78.5,239.5C 76.5372,236.839 74.5372,234.172 72.5,231.5C 71.3112,230.571 69.9778,230.238 68.5,230.5C 68.0217,227.722 69.0217,225.722 71.5,224.5C 69.0508,223.09 66.8841,223.424 65,225.5C 64.5172,224.552 64.3505,223.552 64.5,222.5C 63.325,222.719 62.325,222.386 61.5,221.5C 57.7789,216.79 54.1123,212.124 50.5,207.5C 47.32,202.473 44.6533,197.14 42.5,191.5C 40.3776,182.608 38.711,173.608 37.5,164.5C 46.8393,164.666 56.1726,164.5 65.5,164C 68.1123,163.361 70.4457,162.194 72.5,160.5C 75.0001,168.171 77.5001,175.838 80,183.5C 80.8763,185.635 82.3763,186.969 84.5,187.5C 84.7117,191.208 86.3783,193.874 89.5,195.5C 92.5678,202.234 97.5678,206.901 104.5,209.5C 104.751,211.17 105.418,212.67 106.5,214C 113.027,217.334 119.694,220.501 126.5,223.5C 131.12,224.493 135.786,224.827 140.5,224.5C 141.5,224.5 142.5,224.5 143.5,224.5C 154.181,225.997 164.848,225.163 175.5,222C 182.377,219.044 189.044,215.711 195.5,212C 196.883,210.729 197.883,209.229 198.5,207.5C 209.24,201.424 216.24,192.424 219.5,180.5C 222.61,177.598 224.11,173.932 224,169.5C 225,167.833 226,166.167 227,164.5C 228.425,150.21 227.425,136.21 224,122.5C 222.278,118.408 220.111,114.741 217.5,111.5C 213.589,106.678 209.922,101.678 206.5,96.5C 204.601,89.9326 200.267,86.2659 193.5,85.5C 190.177,83.8352 186.843,82.1686 183.5,80.5C 182.833,79.8333 182.167,79.1667 181.5,78.5C 181.423,77.2502 180.756,76.4169 179.5,76C 175.016,75.1294 170.683,73.7961 166.5,72C 164.19,71.5034 161.857,71.3367 159.5,71.5C 153.872,69.7893 147.872,68.7893 141.5,68.5C 134.589,71.2111 127.589,73.5444 120.5,75.5C 119.476,76.8518 118.476,78.1851 117.5,79.5C 116.833,79.5 116.167,79.5 115.5,79.5C 113.073,79.523 110.74,80.023 108.5,81C 105.931,84.073 102.931,86.573 99.5,88.5C 97.7224,90.264 96.3891,92.264 95.5,94.5C 94.5,96.1667 93.1667,97.5 91.5,98.5C 89.629,98.8588 88.129,99.8588 87,101.5C 84.9115,105.349 82.5782,109.015 80,112.5C 79.1785,115.117 78.6785,117.784 78.5,120.5C 76.7446,119.928 75.0779,119.094 73.5,118C 70.2694,113.267 66.2694,109.434 61.5,106.5C 59.9731,106.427 58.9731,107.094 58.5,108.5C 57.8826,108.611 57.3826,108.944 57,109.5C 56.39,117.519 56.5567,125.519 57.5,133.5C 50.3574,133.176 43.3574,133.842 36.5,135.5C 36.9846,128.081 37.9846,120.748 39.5,113.5C 40.9489,105.476 43.9489,98.1427 48.5,91.5C 50.8674,89.8199 53.0341,87.8199 55,85.5C 57.592,79.7606 60.7587,74.4273 64.5,69.5C 67.5628,65.4342 71.2294,62.1009 75.5,59.5C 79.8776,57.6464 83.8776,55.1464 87.5,52C 89.1341,51.5065 90.8008,51.3398 92.5,51.5C 92.5,52.8333 92.5,54.1667 92.5,55.5C 93.5,55.5 94.5,55.5 95.5,55.5C 95.7529,53.1727 95.0863,51.1727 93.5,49.5C 94.9479,48.6461 96.2813,47.6461 97.5,46.5C 102.607,45.1911 107.274,43.0244 111.5,40C 116.5,39.6667 121.5,39.3333 126.5,39C 127.337,37.9887 127.67,36.8221 127.5,35.5C 143.476,34.5781 159.476,34.2448 175.5,34.5 Z"/></g>
<g><path style="opacity:1" fill="#dd704e" d="M 197.5,42.5 C 200.691,43.0922 203.691,44.2589 206.5,46C 210.898,49.3943 215.565,52.3943 220.5,55C 223.532,57.8404 226.532,60.6737 229.5,63.5C 226.911,62.8727 224.411,62.8727 222,63.5C 221.725,60.4174 220.225,57.584 217.5,55C 214.137,53.8125 211.137,51.9791 208.5,49.5C 206.577,48.6922 204.577,48.1922 202.5,48C 201.631,45.3455 199.964,43.5122 197.5,42.5 Z"/></g>
<g><path style="opacity:1" fill="#de6e4a" d="M 159.5,71.5 C 153.974,71.1786 148.64,71.5119 143.5,72.5C 134.342,73.2225 125.676,75.5559 117.5,79.5C 118.476,78.1851 119.476,76.8518 120.5,75.5C 127.589,73.5444 134.589,71.2111 141.5,68.5C 147.872,68.7893 153.872,69.7893 159.5,71.5 Z"/></g>
<g><path style="opacity:1" fill="#d9876a" d="M 143.5,72.5 C 148.64,71.5119 153.974,71.1786 159.5,71.5C 161.857,71.3367 164.19,71.5034 166.5,72C 170.683,73.7961 175.016,75.1294 179.5,76C 180.756,76.4169 181.423,77.2502 181.5,78.5C 169.319,73.7259 156.653,71.7259 143.5,72.5 Z"/></g>
<g><path style="opacity:1" fill="#da7861" d="M 64.5,69.5 C 60.7587,74.4273 57.592,79.7606 55,85.5C 53.0341,87.8199 50.8674,89.8199 48.5,91.5C 50.317,87.1994 52.6503,83.1994 55.5,79.5C 58.5,76.1667 61.5,72.8333 64.5,69.5 Z"/></g>
<g><path style="opacity:1" fill="#fdfdfc" d="M 143.5,72.5 C 156.653,71.7259 169.319,73.7259 181.5,78.5C 182.167,79.1667 182.833,79.8333 183.5,80.5C 183.511,82.0174 184.177,83.1841 185.5,84C 193.72,86.8892 199.72,92.2225 203.5,100C 205.718,101.091 207.884,102.257 210,103.5C 211.458,108.615 214.125,112.948 218,116.5C 218.333,117.833 218.667,119.167 219,120.5C 219.383,119.944 219.883,119.611 220.5,119.5C 220.433,120.959 220.766,122.292 221.5,123.5C 220.448,123.351 219.448,123.517 218.5,124C 213.078,131.424 206.412,137.424 198.5,142C 181.086,149.152 163.086,151.485 144.5,149C 134.307,145.382 124.307,141.382 114.5,137C 111.446,136.179 108.446,136.345 105.5,137.5C 104.873,138.417 104.539,139.417 104.5,140.5C 104.028,142.531 103.028,144.198 101.5,145.5C 93.6715,144.502 86.3382,142.002 79.5,138C 77.552,136.561 76.2186,134.728 75.5,132.5C 76.3284,129.521 76.9951,126.521 77.5,123.5C 78.404,122.791 78.7373,121.791 78.5,120.5C 82.3126,112.877 86.6459,105.544 91.5,98.5C 93.1667,97.5 94.5,96.1667 95.5,94.5C 101.647,88.6705 108.313,83.6705 115.5,79.5C 116.167,79.5 116.833,79.5 117.5,79.5C 125.676,75.5559 134.342,73.2225 143.5,72.5 Z"/></g>
<g><path style="opacity:1" fill="#feefdf" d="M 183.5,80.5 C 186.843,82.1686 190.177,83.8352 193.5,85.5C 197.534,89.5355 201.868,93.2022 206.5,96.5C 209.922,101.678 213.589,106.678 217.5,111.5C 218.499,114.162 219.499,116.828 220.5,119.5C 219.883,119.611 219.383,119.944 219,120.5C 218.667,119.167 218.333,117.833 218,116.5C 214.125,112.948 211.458,108.615 210,103.5C 207.884,102.257 205.718,101.091 203.5,100C 199.72,92.2225 193.72,86.8892 185.5,84C 184.177,83.1841 183.511,82.0174 183.5,80.5 Z"/></g>
<g><path style="opacity:1" fill="#d37452" d="M 115.5,79.5 C 108.313,83.6705 101.647,88.6705 95.5,94.5C 96.3891,92.264 97.7224,90.264 99.5,88.5C 102.931,86.573 105.931,84.073 108.5,81C 110.74,80.023 113.073,79.523 115.5,79.5 Z"/></g>
<g><path style="opacity:1" fill="#e07e5e" d="M 193.5,85.5 C 200.267,86.2659 204.601,89.9326 206.5,96.5C 201.868,93.2022 197.534,89.5355 193.5,85.5 Z"/></g>
<g><path style="opacity:1" fill="#e1734f" d="M 229.5,63.5 C 233.167,66.5 236.5,69.8333 239.5,73.5C 249.083,84.6597 256.083,97.3264 260.5,111.5C 256.816,106.943 253.15,102.11 249.5,97C 250.357,96.3109 251.023,95.4776 251.5,94.5C 248.6,92.1112 246.767,89.1112 246,85.5C 245,84.1667 244,84.1667 243,85.5C 242.667,83.8333 242.333,82.1667 242,80.5C 241.586,80.9574 241.086,81.2907 240.5,81.5C 239.719,80.2713 239.219,78.938 239,77.5C 237.488,76.7433 236.154,75.7433 235,74.5C 233.378,70.6631 231.545,66.9965 229.5,63.5 Z"/></g>
<g><path style="opacity:1" fill="#fef3e5" d="M 239.5,73.5 C 241.441,73.8693 243.275,74.536 245,75.5C 250.154,85.8102 255.821,95.8102 262,105.5C 267.045,123.263 268.545,141.263 266.5,159.5C 267.761,142.919 265.761,126.919 260.5,111.5C 256.083,97.3264 249.083,84.6597 239.5,73.5 Z"/></g>
<g><path style="opacity:1" fill="#d47453" d="M 91.5,98.5 C 86.6459,105.544 82.3126,112.877 78.5,120.5C 78.6785,117.784 79.1785,115.117 80,112.5C 82.5782,109.015 84.9115,105.349 87,101.5C 88.129,99.8588 89.629,98.8588 91.5,98.5 Z"/></g>
<g><path style="opacity:1" fill="#370e06" d="M 61.5,106.5 C 62.1667,107.5 62.8333,108.5 63.5,109.5C 62.4168,109.539 61.4168,109.873 60.5,110.5C 59.2124,118.899 59.5458,127.232 61.5,135.5C 57.6075,126.956 56.6075,117.956 58.5,108.5C 58.9731,107.094 59.9731,106.427 61.5,106.5 Z"/></g>
<g><path style="opacity:1" fill="#bf634c" d="M 61.5,106.5 C 66.2694,109.434 70.2694,113.267 73.5,118C 75.0779,119.094 76.7446,119.928 78.5,120.5C 78.7373,121.791 78.404,122.791 77.5,123.5C 73.1938,118.527 68.5271,113.86 63.5,109.5C 62.8333,108.5 62.1667,107.5 61.5,106.5 Z"/></g>
<g><path style="opacity:1" fill="#fef3e5" d="M 55.5,79.5 C 52.6503,83.1994 50.317,87.1994 48.5,91.5C 43.9489,98.1427 40.9489,105.476 39.5,113.5C 36.0253,121.337 34.3586,129.671 34.5,138.5C 33.791,139.404 32.791,139.737 31.5,139.5C 33.0404,132.972 33.8737,126.305 34,119.5C 36.2881,114.426 37.9547,109.093 39,103.5C 40.4038,101.606 41.5705,99.6061 42.5,97.5C 41.2677,95.9501 40.7677,94.2834 41,92.5C 43.4675,91.8957 45.4675,90.5624 47,88.5C 48.1607,85.1766 49.9941,82.3433 52.5,80C 53.448,79.5172 54.448,79.3505 55.5,79.5 Z"/></g>
<g><path style="opacity:1" fill="#d16c51" d="M 58.5,108.5 C 56.6075,117.956 57.6075,126.956 61.5,135.5C 57.0332,135.647 52.3665,135.814 47.5,136C 43.2464,137.314 38.913,138.147 34.5,138.5C 34.3586,129.671 36.0253,121.337 39.5,113.5C 37.9846,120.748 36.9846,128.081 36.5,135.5C 43.3574,133.842 50.3574,133.176 57.5,133.5C 56.5567,125.519 56.39,117.519 57,109.5C 57.3826,108.944 57.8826,108.611 58.5,108.5 Z"/></g>
<g><path style="opacity:1" fill="#d8795a" d="M 260.5,111.5 C 265.761,126.919 267.761,142.919 266.5,159.5C 266.5,160.167 266.5,160.833 266.5,161.5C 265.607,165.191 264.607,168.858 263.5,172.5C 264.595,156.17 264.428,139.837 263,123.5C 261.011,119.747 260.178,115.747 260.5,111.5 Z"/></g>
<g><path style="opacity:1" fill="#380b09" d="M 57.5,162.5 C 54.6862,163.165 51.6862,163.498 48.5,163.5C 43.8929,163.684 39.5595,163.017 35.5,161.5C 36.1499,161.196 36.8165,160.863 37.5,160.5C 44.097,161.693 50.7637,162.36 57.5,162.5 Z"/></g>
<g><path style="opacity:1" fill="#d06a4d" d="M 217.5,111.5 C 220.111,114.741 222.278,118.408 224,122.5C 227.425,136.21 228.425,150.21 227,164.5C 226,166.167 225,167.833 224,169.5C 224.11,173.932 222.61,177.598 219.5,180.5C 219.869,178.559 220.536,176.725 221.5,175C 221.272,174.601 220.938,174.435 220.5,174.5C 224.333,165.997 225.999,156.997 225.5,147.5C 226.094,139.141 224.76,131.141 221.5,123.5C 220.766,122.292 220.433,120.959 220.5,119.5C 219.499,116.828 218.499,114.162 217.5,111.5 Z"/></g>
<g><path style="opacity:1" fill="#d47053" d="M 75.5,162.5 C 77.1193,171.36 80.1193,179.693 84.5,187.5C 82.3763,186.969 80.8763,185.635 80,183.5C 77.5001,175.838 75.0001,168.171 72.5,160.5C 70.4457,162.194 68.1123,163.361 65.5,164C 56.1726,164.5 46.8393,164.666 37.5,164.5C 38.711,173.608 40.3776,182.608 42.5,191.5C 39.78,185.815 37.6133,179.815 36,173.5C 35.5804,169.809 35.0804,166.142 34.5,162.5C 34.5,162.167 34.5,161.833 34.5,161.5C 34.8333,161.5 35.1667,161.5 35.5,161.5C 39.5595,163.017 43.8929,163.684 48.5,163.5C 51.6862,163.498 54.6862,163.165 57.5,162.5C 63.9652,162.19 69.4652,159.857 74,155.5C 74.977,157.74 75.477,160.073 75.5,162.5 Z"/></g>
<g><path style="opacity:1" fill="#0a0a0b" d="M 63.5,109.5 C 68.5271,113.86 73.1938,118.527 77.5,123.5C 76.9951,126.521 76.3284,129.521 75.5,132.5C 76.2186,134.728 77.552,136.561 79.5,138C 86.3382,142.002 93.6715,144.502 101.5,145.5C 102.209,146.404 103.209,146.737 104.5,146.5C 104.5,144.5 104.5,142.5 104.5,140.5C 104.539,139.417 104.873,138.417 105.5,137.5C 108.446,136.345 111.446,136.179 114.5,137C 124.307,141.382 134.307,145.382 144.5,149C 163.086,151.485 181.086,149.152 198.5,142C 206.412,137.424 213.078,131.424 218.5,124C 219.448,123.517 220.448,123.351 221.5,123.5C 224.76,131.141 226.094,139.141 225.5,147.5C 225.999,156.997 224.333,165.997 220.5,174.5C 181.901,194.66 141.901,198.16 100.5,185C 89.1617,180.691 80.8284,173.191 75.5,162.5C 75.477,160.073 74.977,157.74 74,155.5C 69.4652,159.857 63.9652,162.19 57.5,162.5C 50.7637,162.36 44.097,161.693 37.5,160.5C 36.8165,160.863 36.1499,161.196 35.5,161.5C 35.1667,161.5 34.8333,161.5 34.5,161.5C 25.7193,158.612 18.0527,153.945 11.5,147.5C 11.7093,146.914 12.0426,146.414 12.5,146C 19.0019,143.968 25.3352,141.801 31.5,139.5C 32.791,139.737 33.791,139.404 34.5,138.5C 38.913,138.147 43.2464,137.314 47.5,136C 52.3665,135.814 57.0332,135.647 61.5,135.5C 59.5458,127.232 59.2124,118.899 60.5,110.5C 61.4168,109.873 62.4168,109.539 63.5,109.5 Z"/></g>
<g><path style="opacity:1" fill="#f7f7f7" d="M 120.5,157.5 C 135.928,163.406 151.928,166.739 168.5,167.5C 159.655,179.945 147.989,183.445 133.5,178C 125.238,173.641 120.905,166.807 120.5,157.5 Z"/></g>
<g><path style="opacity:1" fill="#f0f1f2" d="M 219.5,144.5 C 221.501,156.534 216.501,164.2 204.5,167.5C 200.762,166.931 197.595,165.264 195,162.5C 194.383,161.551 194.549,160.718 195.5,160C 205.001,156.97 213.001,151.804 219.5,144.5 Z"/></g>
<g><path style="opacity:1" fill="#868788" d="M 104.5,140.5 C 104.5,142.5 104.5,144.5 104.5,146.5C 103.209,146.737 102.209,146.404 101.5,145.5C 103.028,144.198 104.028,142.531 104.5,140.5 Z"/></g>
<g><path style="opacity:1" fill="#fdf0e1" d="M 266.5,161.5 C 266.026,168.163 265.526,174.829 265,181.5C 260.748,190.244 256.915,199.244 253.5,208.5C 252.5,208.5 251.5,208.5 250.5,208.5C 250.815,210.226 250.981,211.893 251,213.5C 246.335,218.213 242.169,223.213 238.5,228.5C 235.464,230.552 232.464,232.552 229.5,234.5C 235.213,228.122 240.547,221.455 245.5,214.5C 250.175,207.818 254.342,200.818 258,193.5C 259.807,187.561 261.307,181.561 262.5,175.5C 263.404,174.791 263.737,173.791 263.5,172.5C 264.607,168.858 265.607,165.191 266.5,161.5 Z"/></g>
<g><path style="opacity:1" fill="#fcfbf9" d="M 75.5,162.5 C 80.8284,173.191 89.1617,180.691 100.5,185C 141.901,198.16 181.901,194.66 220.5,174.5C 220.938,174.435 221.272,174.601 221.5,175C 220.536,176.725 219.869,178.559 219.5,180.5C 213.677,190.334 206.677,199.334 198.5,207.5C 192.471,212.184 185.805,215.851 178.5,218.5C 168.234,219.487 158.068,220.821 148,222.5C 141.043,222.57 134.209,221.903 127.5,220.5C 119.133,218.163 111.466,214.496 104.5,209.5C 98.8714,205.539 93.8714,200.873 89.5,195.5C 88.8305,192.151 87.1639,189.484 84.5,187.5C 80.1193,179.693 77.1193,171.36 75.5,162.5 Z"/></g>
<g><path style="opacity:1" fill="#da8262" d="M 84.5,187.5 C 87.1639,189.484 88.8305,192.151 89.5,195.5C 86.3783,193.874 84.7117,191.208 84.5,187.5 Z"/></g>
<g><path style="opacity:1" fill="#db785c" d="M 219.5,180.5 C 216.24,192.424 209.24,201.424 198.5,207.5C 206.677,199.334 213.677,190.334 219.5,180.5 Z"/></g>
<g><path style="opacity:1" fill="#fcf1e2" d="M 34.5,162.5 C 35.0804,166.142 35.5804,169.809 36,173.5C 37.6133,179.815 39.78,185.815 42.5,191.5C 44.6533,197.14 47.32,202.473 50.5,207.5C 50.8925,209.284 51.5592,210.95 52.5,212.5C 51.325,212.719 50.325,212.386 49.5,211.5C 47.6375,209.138 46.4709,206.471 46,203.5C 43.9287,202.636 42.262,201.303 41,199.5C 38.5839,191.007 36.0839,182.507 33.5,174C 34.9216,170.62 34.5883,167.453 32.5,164.5C 32.7472,163.287 33.4138,162.62 34.5,162.5 Z"/></g>
<g><path style="opacity:1" fill="#da7151" d="M 262.5,175.5 C 261.307,181.561 259.807,187.561 258,193.5C 254.342,200.818 250.175,207.818 245.5,214.5C 245.338,212.473 245.505,210.473 246,208.5C 248.907,205.354 250.74,201.687 251.5,197.5C 252.5,197.5 253.5,197.5 254.5,197.5C 254.5,195.5 254.5,193.5 254.5,191.5C 255.5,191.5 256.5,191.5 257.5,191.5C 258.394,185.823 260.061,180.49 262.5,175.5 Z"/></g>
<g><path style="opacity:1" fill="#d67a56" d="M 89.5,195.5 C 93.8714,200.873 98.8714,205.539 104.5,209.5C 97.5678,206.901 92.5678,202.234 89.5,195.5 Z"/></g>
<g><path style="opacity:1" fill="#d77b59" d="M 198.5,207.5 C 197.883,209.229 196.883,210.729 195.5,212C 189.044,215.711 182.377,219.044 175.5,222C 164.848,225.163 154.181,225.997 143.5,224.5C 155.71,224.966 167.376,222.966 178.5,218.5C 185.805,215.851 192.471,212.184 198.5,207.5 Z"/></g>
<g><path style="opacity:1" fill="#da7252" d="M 104.5,209.5 C 111.466,214.496 119.133,218.163 127.5,220.5C 131.635,222.563 135.969,223.896 140.5,224.5C 135.786,224.827 131.12,224.493 126.5,223.5C 119.694,220.501 113.027,217.334 106.5,214C 105.418,212.67 104.751,211.17 104.5,209.5 Z"/></g>
<g><path style="opacity:1" fill="#e86a47" d="M 245.5,214.5 C 240.547,221.455 235.213,228.122 229.5,234.5C 227.246,235.415 225.246,236.748 223.5,238.5C 222.874,234.625 224.541,232.791 228.5,233C 231.586,229.49 230.919,227.323 226.5,226.5C 226.617,228.484 225.95,230.15 224.5,231.5C 224.167,230.667 223.833,229.833 223.5,229C 224.886,224.689 227.886,222.856 232.5,223.5C 232.5,222.5 232.5,221.5 232.5,220.5C 233.5,220.5 234.5,220.5 235.5,220.5C 235.351,221.552 235.517,222.552 236,223.5C 237.92,221.274 239.753,218.941 241.5,216.5C 242.622,215.37 243.956,214.703 245.5,214.5 Z"/></g>
<g><path style="opacity:1" fill="#ffe8d9" d="M 178.5,218.5 C 167.376,222.966 155.71,224.966 143.5,224.5C 142.5,224.5 141.5,224.5 140.5,224.5C 135.969,223.896 131.635,222.563 127.5,220.5C 134.209,221.903 141.043,222.57 148,222.5C 158.068,220.821 168.234,219.487 178.5,218.5 Z"/></g>
<g><path style="opacity:1" fill="#e07552" d="M 50.5,207.5 C 54.1123,212.124 57.7789,216.79 61.5,221.5C 62.325,222.386 63.325,222.719 64.5,222.5C 64.3505,223.552 64.5172,224.552 65,225.5C 66.8841,223.424 69.0508,223.09 71.5,224.5C 69.0217,225.722 68.0217,227.722 68.5,230.5C 69.9778,230.238 71.3112,230.571 72.5,231.5C 74.5372,234.172 76.5372,236.839 78.5,239.5C 73.0835,236.352 68.2501,232.352 64,227.5C 60.3341,222.339 56.5008,217.339 52.5,212.5C 51.5592,210.95 50.8925,209.284 50.5,207.5 Z"/></g>
<g><path style="opacity:1" fill="#da7352" d="M 223.5,238.5 C 213.582,246.628 202.582,252.962 190.5,257.5C 191.703,255.605 192.869,253.605 194,251.5C 195.726,252.576 197.559,252.743 199.5,252C 201.723,249.777 204.389,248.444 207.5,248C 212.293,243.66 217.627,240.494 223.5,238.5 Z"/></g>
<g><path style="opacity:1" fill="#dc704e" d="M 93.5,249.5 C 104.684,253.958 116.017,257.791 127.5,261C 144.915,263.115 162.249,262.948 179.5,260.5C 174.107,262.322 168.441,263.322 162.5,263.5C 150.817,263.602 139.15,263.269 127.5,262.5C 114.978,260.888 103.645,256.555 93.5,249.5 Z"/></g>
<g><path style="opacity:1" fill="#cb7a5e" d="M 127.5,262.5 C 139.15,263.269 150.817,263.602 162.5,263.5C 158.18,264.166 153.68,264.499 149,264.5C 141.609,264.636 134.443,263.969 127.5,262.5 Z"/></g>
</svg>
